# xmcd
#
# Track frame offsets:
#	183
#	16860
#	33008
#	50295
#	62285
#	88190
#	116448
#	133055
#	149825
#	161963
#
# Disc length: 2338 seconds
#
# Revision: 2
# Processed by: cddbd v1.5.1PL2 Copyright (c) Steve Scherf et al.
# Submitted via: dBpowerAMP V4.0
#
DISCID=8309200a
DTITLE=The Wood Brothers - Hooked On Country
DYEAR=1991
DGENRE=Country
TTITLE0=Hooked On Country Love
TTITLE1=Hooked On Randy Travis
TTITLE2=Hooked On Willie Nelson
TTITLE3=Hooked On Trains
TTITLE4=Hooked On Merle Haggard
TTITLE5=Hooked On George Strait
TTITLE6=Hooked On Marty Robbins
TTITLE7=Hooked On a Waltz
TTITLE8=Hooked On Johnny Cash
TTITLE9=Hooked On A Country Party
EXTD=
EXTT0=
EXTT1=
EXTT2=
EXTT3=
EXTT4=
EXTT5=
EXTT6=
EXTT7=
EXTT8=
EXTT9=
PLAYORDER=
